<?xml version="1.0" encoding="UTF-8" standalone="no"?>
<svg
   xmlns:dc="http://purl.org/dc/elements/1.1/"
   xmlns:cc="http://creativecommons.org/ns#"
   xmlns:rdf="http://www.w3.org/1999/02/22-rdf-syntax-ns#"
   xmlns:svg="http://www.w3.org/2000/svg"
   xmlns="http://www.w3.org/2000/svg"
   xmlns:sodipodi="http://sodipodi.sourceforge.net/DTD/sodipodi-0.dtd"
   xmlns:inkscape="http://www.inkscape.org/namespaces/inkscape"
   inkscape:version="1.0 (4035a4fb49, 2020-05-01)"
   inkscape:export-ydpi="6.1859031"
   inkscape:export-xdpi="6.1859031"
   inkscape:export-filename="C:\Users\Sotsuken06A\Desktop\32.png"
   sodipodi:docname="書道のアイコン1.svg"
   xml:space="preserve"
   style="width: 48px; height: 48px; opacity: 1;"
   viewBox="0 0 512 512"
   y="0px"
   x="0px"
   id="_x32_"
   version="1.1"><metadata
   id="metadata21"><rdf:RDF><cc:Work
       rdf:about=""><dc:format>image/svg+xml</dc:format><dc:type
         rdf:resource="http://purl.org/dc/dcmitype/StillImage" /><dc:title></dc:title></cc:Work></rdf:RDF></metadata><defs
   id="defs19">
	
	
	
	
	
</defs><sodipodi:namedview
   inkscape:current-layer="_x32_"
   inkscape:window-maximized="0"
   inkscape:window-y="126"
   inkscape:window-x="2873"
   inkscape:cy="411.07776"
   inkscape:cx="210.22983"
   inkscape:zoom="0.41992188"
   showgrid="false"
   id="namedview17"
   inkscape:window-height="1000"
   inkscape:window-width="958"
   inkscape:pageshadow="2"
   inkscape:pageopacity="0"
   guidetolerance="10"
   gridtolerance="10"
   objecttolerance="10"
   borderopacity="1"
   bordercolor="#666666"
   pagecolor="#ffffff" />
<style
   id="style2"
   type="text/css">
	.st0{fill:#4B4B4B;}
</style>

<g
   inkscape:export-ydpi="48"
   inkscape:export-xdpi="48"
   id="g929"><rect
     style="fill:none;fill-opacity:1;stroke:none;stroke-width:7.55906;stroke-linecap:round;stroke-linejoin:round;paint-order:stroke fill markers"
     id="rect898"
     width="512"
     height="512"
     x="0"
     y="2.8356934e-07" /><g
     id="g896"
     transform="translate(0,4.97e-4)"><rect
       y="7.6929998"
       x="0"
       height="496.61301"
       width="394.22"
       id="rect887"
       style="fill:#ffffff;fill-opacity:1;stroke:none;stroke-width:7.55905;stroke-linecap:round;stroke-linejoin:round;paint-order:stroke fill markers" /><path
       class="st0"
       d="m 205.236,359.113 c 24.917,0.218 47.908,-7.244 64.737,-20.992 14.752,-12.06 21.862,-31.213 18.562,-50.016 l -0.135,-0.779 -31.784,-38.878 -0.742,-0.3 c -17.759,-6.945 -37.949,-3.794 -52.693,8.265 -13.987,11.437 -21.955,25.934 -29.654,39.95 -5.257,9.577 -10.691,19.477 -18.029,28.394 -6.071,7.372 -9.412,9.682 -9.412,9.682 l -3.387,2.212 3.019,2.662 c 14.104,12.375 35.796,19.604 59.518,19.8 z m -5.929,-79.647 c 3.506,-4.649 7.458,-8.984 12.202,-12.862 10.289,-8.421 24.516,-11.092 37.202,-7.027 l 27.209,33.284 c 1.47,13.244 -3.983,26.646 -14.272,35.068 -3.967,3.225 -8.407,6.075 -13.207,8.475 -0.727,0.247 -1.478,0.525 -2.272,0.848 -8.835,3.682 -17.59,-1.403 -8.632,-11.362 8.969,-9.975 -0.127,-16.484 -10.459,-11.19 -12.974,6.675 -15.689,-2.295 -12.322,-7.019 3.371,-4.74 12.218,-10.005 7.781,-16.23 -2.674,-3.764 -8.264,-0.915 -16.919,2.64 -4.949,2.04 -14.031,-1.605 -6.311,-14.625 z"
       style="fill:#000000;fill-opacity:1"
       id="path4" /><path
       class="st0"
       d="m 309.384,277.051 c 7.11,0.51 14.122,-1.905 19.41,-6.69 l 23.894,-21.704 -45.373,-55.527 -26.046,19.116 c -5.745,4.222 -9.502,10.612 -10.41,17.684 -0.885,7.058 1.147,14.197 5.662,19.717 l 14.662,17.924 c 4.506,5.528 11.099,8.94 18.201,9.48 z"
       style="fill:#000000;fill-opacity:1"
       id="path6" /><path
       class="st0"
       d="m 384.366,251.013 -40.078,36.403 c -2.415,2.183 -5.032,4.065 -7.777,5.708 V 431.995 H 57.713 V 53.126 H 336.51 v 90.011 l 57.71,-42.344 V 7.693 H 0 V 504.306 H 394.22 V 242.035 l -9.862,8.962 z"
       style="fill:#000000;fill-opacity:1"
       id="path8" /><path
       class="st0"
       d="m 506.326,76.855 -0.113,-0.134 C 497.753,66.379 482.672,64.466 471.902,72.37 l -155.34,113.98 44.616,54.583 142.591,-129.594 c 9.898,-8.985 11.016,-24.15 2.557,-34.484 z"
       style="fill:#000000;fill-opacity:1"
       id="path10" /><text
       xml:space="preserve"
       style="font-style:normal;font-variant:normal;font-weight:normal;font-stretch:normal;font-size:180.37px;line-height:1.25;font-family:Impact;-inkscape-font-specification:'Impact, Normal';font-variant-ligatures:normal;font-variant-caps:normal;font-variant-numeric:normal;font-variant-east-asian:normal;letter-spacing:0px;stroke-width:1"
       x="77.503906"
       y="222.69046"
       id="text853-0"><tspan
         sodipodi:role="line"
         id="tspan851-9"
         x="77.503906"
         y="222.69046"
         style="font-style:normal;font-variant:normal;font-weight:normal;font-stretch:normal;font-size:180.37px;font-family:Impact;-inkscape-font-specification:'Impact, Normal';font-variant-ligatures:normal;font-variant-caps:normal;font-variant-numeric:normal;font-variant-east-asian:normal;stroke-width:1">NC</tspan></text></g></g></svg>
